<svg width="22" height="22" viewBox="0 0 22 22" fill="none" xmlns="http://www.w3.org/2000/svg">
<path d="M4.42444 9.52111C6.18444 12.98 9.02 15.8156 12.4789 17.5756L15.1678 14.8867C15.51 14.5444 15.9867 14.4467 16.4144 14.5811C17.7833 15.0333 19.25 15.2778 20.7778 15.2778C21.1019 15.2778 21.4128 15.4065 21.642 15.6358C21.8712 15.865 22 16.1758 22 16.5V20.7778C22 21.1019 21.8712 21.4128 21.642 21.642C21.4128 21.8712 21.1019 22 20.7778 22C15.2672 22 9.98226 19.8109 6.08567 15.9143C2.18908 12.0177 0 6.73283 0 1.22222C0 0.898069 0.128769 0.587192 0.357981 0.357981C0.587192 0.128769 0.898069 0 1.22222 0H5.5C5.82415 0 6.13503 0.128769 6.36424 0.357981C6.59345 0.587192 6.72222 0.898069 6.72222 1.22222C6.72222 2.75 6.96667 4.21667 7.41889 5.58556C7.55333 6.01333 7.45555 6.49 7.11333 6.83222L4.42444 9.52111Z" fill="#407BFF"/>
</svg>
