<svg width="24" height="19" viewBox="0 0 24 19" fill="none" xmlns="http://www.w3.org/2000/svg">
<path d="M21 16.3333H18.6667V6.125L11.6667 10.5L4.66667 6.125V16.3333H2.33333V2.33333H3.73333L11.6667 7.29167L19.6 2.33333H21M21 0H2.33333C1.03833 0 0 1.03833 0 2.33333V16.3333C0 16.9522 0.245833 17.5457 0.683417 17.9832C1.121 18.4208 1.71449 18.6667 2.33333 18.6667H21C21.6188 18.6667 22.2123 18.4208 22.6499 17.9832C23.0875 17.5457 23.3333 16.9522 23.3333 16.3333V2.33333C23.3333 1.03833 22.2833 0 21 0Z" fill="#407BFF"/>
</svg>
