<svg width="23" height="33" viewBox="0 0 23 33" fill="none" xmlns="http://www.w3.org/2000/svg">
<path d="M11.5 7.39286C12.5893 7.39286 13.634 7.82557 14.4042 8.59581C15.1744 9.36605 15.6071 10.4107 15.6071 11.5C15.6071 12.0394 15.5009 12.5734 15.2945 13.0717C15.0881 13.57 14.7856 14.0228 14.4042 14.4042C14.0228 14.7856 13.57 15.0881 13.0717 15.2945C12.5734 15.5009 12.0394 15.6071 11.5 15.6071C10.4107 15.6071 9.36605 15.1744 8.59581 14.4042C7.82557 13.634 7.39286 12.5893 7.39286 11.5C7.39286 10.4107 7.82557 9.36605 8.59581 8.59581C9.36605 7.82557 10.4107 7.39286 11.5 7.39286ZM11.5 0C14.55 0 17.4751 1.2116 19.6317 3.36827C21.7884 5.52494 23 8.45001 23 11.5C23 20.125 11.5 32.8571 11.5 32.8571C11.5 32.8571 0 20.125 0 11.5C0 8.45001 1.2116 5.52494 3.36827 3.36827C5.52494 1.2116 8.45001 0 11.5 0ZM11.5 3.28571C9.32144 3.28571 7.2321 4.15115 5.69162 5.69162C4.15115 7.2321 3.28571 9.32144 3.28571 11.5C3.28571 13.1429 3.28571 16.4286 11.5 27.4521C19.7143 16.4286 19.7143 13.1429 19.7143 11.5C19.7143 9.32144 18.8489 7.2321 17.3084 5.69162C15.7679 4.15115 13.6786 3.28571 11.5 3.28571Z" fill="#407BFF"/>
</svg>
